# xmcd
#
# Track frame offsets: 
#        150
#        13074
#        40501
#        67762
#        101757
#        125586
#        160028
#        185476
#        212743
#        232314
#        258856
#        281964
#        295156
#
# Disc length: 4082 seconds
#
# Revision: 0
# Processed by: cddbd v1.5.2PL0 Copyright (c) Steve Scherf et al.
# Submitted via: ExactAudioCopyFreeDBPlugin 1.0
#
DISCID=bc0ff00d
DTITLE=Young Pinstripe Brass Band - Jefferson Parish
DYEAR=2012
DGENRE=New Orleans Brass Band
TTITLE0=Intro
TTITLE1=Just The Two Of Us
TTITLE2=Champagne Life
TTITLE3=Crazy
TTITLE4=If You Want Me To Stay
TTITLE5=Just The Way You are
TTITLE6=Mercy Mercy Me
TTITLE7=Another Part Of Me
TTITLE8=Shame
TTITLE9=Too Many Games
TTITLE10=September
TTITLE11=Outro
TTITLE12=When The Saints Go Marching
EXTD=
EXTT0=
EXTT1=
EXTT2=
EXTT3=
EXTT4=
EXTT5=
EXTT6=
EXTT7=
EXTT8=
EXTT9=
EXTT10=
EXTT11=
EXTT12=
PLAYORDER=
